<svg width="45" height="45" viewBox="0 0 45 45" fill="none" xmlns="http://www.w3.org/2000/svg">
<g clip-path="url(#clip0_25_7)">
<path fill-rule="evenodd" clip-rule="evenodd" d="M5.05922 2.88642C5.05922 2.24706 4.80524 1.63389 4.35314 1.18179C3.90104 0.729693 3.28787 0.475708 2.64851 0.475708C2.00915 0.475708 1.39597 0.729693 0.943875 1.18179C0.491778 1.63389 0.237793 2.24706 0.237793 2.88642V42.1136C0.237793 43.4443 1.31779 44.5243 2.64851 44.5243H41.8756C42.515 44.5243 43.1282 44.2703 43.5803 43.8182C44.0324 43.3661 44.2864 42.7529 44.2864 42.1136C44.2864 41.4742 44.0324 40.861 43.5803 40.4089C43.1282 39.9568 42.515 39.7029 41.8756 39.7029H5.05601L5.05922 2.88642ZM32.8531 7.81392C32.5024 7.5638 32.105 7.38674 31.6844 7.29326C31.2639 7.19977 30.8289 7.19177 30.4052 7.26973C29.9816 7.34769 29.5779 7.51002 29.2182 7.74707C28.8585 7.98412 28.5501 8.29105 28.3114 8.64964L18.4178 23.4868L13.6478 18.7168C13.3492 18.4179 12.9946 18.1808 12.6043 18.019C12.214 17.8572 11.7957 17.7738 11.3732 17.7737C10.9507 17.7735 10.5323 17.8566 10.142 18.0181C9.75157 18.1797 9.39682 18.4165 9.09797 18.7152C8.79912 19.0138 8.56202 19.3684 8.4002 19.7587C8.23838 20.1489 8.15502 20.5673 8.15487 20.9897C8.15472 21.4122 8.23779 21.8306 8.39933 22.221C8.56087 22.6114 8.79772 22.9661 9.09636 23.265L16.6403 30.8057C16.9765 31.1425 17.3833 31.4005 17.8313 31.561C18.2793 31.7215 18.7574 31.7805 19.231 31.7338C19.7046 31.687 20.1619 31.5357 20.5699 31.2907C20.9779 31.0457 21.3264 30.7132 21.5903 30.3171L31.8149 14.9753L39.6771 20.5907C40.371 21.086 41.2332 21.2853 42.0742 21.1449C42.9151 21.0044 43.6657 20.5357 44.161 19.8418C44.6563 19.1479 44.8556 18.2856 44.7152 17.4447C44.5747 16.6038 44.106 15.8531 43.4121 15.3578L32.8531 7.81392Z" fill="black"/>
</g>
<defs>
<clipPath id="clip0_25_7">
<rect width="45" height="45" fill="white"/>
</clipPath>
</defs>
</svg>
