<svg width="45" height="45" viewBox="0 0 45 45" fill="none" xmlns="http://www.w3.org/2000/svg">
<path d="M37.3124 23.7375C37.0118 23.3953 36.8461 22.9554 36.8461 22.5C36.8461 22.0445 37.0118 21.6047 37.3124 21.2625L39.7124 18.5625C39.9769 18.2675 40.1411 17.8963 40.1815 17.5022C40.222 17.1081 40.1365 16.7113 39.9374 16.3687L36.1874 9.88124C35.9904 9.53909 35.6903 9.26788 35.3301 9.10627C34.9698 8.94467 34.5678 8.90091 34.1812 8.98124L30.6562 9.69374C30.2076 9.78641 29.7407 9.71172 29.3435 9.48374C28.9462 9.25576 28.6462 8.89027 28.4999 8.45624L27.3562 5.02499C27.2304 4.65257 26.9907 4.32911 26.6711 4.10032C26.3515 3.87152 25.968 3.74897 25.5749 3.74999H18.0749C17.6661 3.72865 17.2614 3.84172 16.9229 4.07195C16.5843 4.30218 16.3304 4.6369 16.1999 5.02499L15.1499 8.45624C15.0037 8.89027 14.7036 9.25576 14.3064 9.48374C13.9092 9.71172 13.4422 9.78641 12.9937 9.69374L9.37493 8.98124C9.00846 8.92945 8.63486 8.98728 8.3012 9.14744C7.96754 9.30759 7.68874 9.56291 7.49993 9.88124L3.74993 16.3687C3.54585 16.7075 3.45409 17.102 3.48777 17.496C3.52145 17.89 3.67883 18.2633 3.93743 18.5625L6.31868 21.2625C6.61928 21.6047 6.78505 22.0445 6.78505 22.5C6.78505 22.9554 6.61928 23.3953 6.31868 23.7375L3.93743 26.4375C3.67883 26.7367 3.52145 27.1099 3.48777 27.5039C3.45409 27.898 3.54585 28.2925 3.74993 28.6312L7.49993 35.1187C7.69699 35.4609 7.99703 35.7321 8.35728 35.8937C8.71753 36.0553 9.1196 36.0991 9.50618 36.0187L13.0312 35.3062C13.4797 35.2136 13.9467 35.2883 14.3439 35.5162C14.7411 35.7442 15.0412 36.1097 15.1874 36.5437L16.3312 39.975C16.4616 40.3631 16.7155 40.6978 17.0541 40.928C17.3927 41.1582 17.7973 41.2713 18.2062 41.25H25.7062C26.0993 41.251 26.4827 41.1285 26.8024 40.8997C27.122 40.6709 27.3616 40.3474 27.4874 39.975L28.6312 36.5437C28.7774 36.1097 29.0775 35.7442 29.4747 35.5162C29.872 35.2883 30.3389 35.2136 30.7874 35.3062L34.3124 36.0187C34.699 36.0991 35.1011 36.0553 35.4613 35.8937C35.8216 35.7321 36.1216 35.4609 36.3187 35.1187L40.0687 28.6312C40.2678 28.2887 40.3532 27.8919 40.3128 27.4978C40.2724 27.1037 40.1081 26.7325 39.8437 26.4375L37.3124 23.7375ZM34.5187 26.25L36.0187 27.9375L33.6187 32.1L31.4062 31.65C30.0558 31.3739 28.651 31.6033 27.4585 32.2946C26.2661 32.9859 25.3689 34.0909 24.9374 35.4L24.2249 37.5H19.4249L18.7499 35.3625C18.3184 34.0534 17.4213 32.9484 16.2288 32.2571C15.0364 31.5658 13.6316 31.3364 12.2812 31.6125L10.0687 32.0625L7.63118 27.9187L9.13118 26.2312C10.0536 25.1999 10.5636 23.8649 10.5636 22.4812C10.5636 21.0976 10.0536 19.7625 9.13118 18.7312L7.63118 17.0437L10.0312 12.9187L12.2437 13.3687C13.5941 13.6448 14.9989 13.4154 16.1913 12.7241C17.3838 12.0328 18.2809 10.9278 18.7124 9.61874L19.4249 7.49999H24.2249L24.9374 9.63749C25.3689 10.9465 26.2661 12.0516 27.4585 12.7429C28.651 13.4341 30.0558 13.6635 31.4062 13.3875L33.6187 12.9375L36.0187 17.1L34.5187 18.7875C33.6066 19.8164 33.103 21.1438 33.103 22.5187C33.103 23.8937 33.6066 25.2211 34.5187 26.25ZM21.8249 15C20.3416 15 18.8915 15.4399 17.6581 16.264C16.4248 17.0881 15.4635 18.2594 14.8958 19.6299C14.3282 21.0003 14.1796 22.5083 14.469 23.9632C14.7584 25.418 15.4727 26.7544 16.5216 27.8033C17.5705 28.8522 18.9069 29.5665 20.3618 29.8559C21.8166 30.1453 23.3246 29.9967 24.6951 29.4291C26.0655 28.8614 27.2368 27.9001 28.0609 26.6668C28.8851 25.4334 29.3249 23.9833 29.3249 22.5C29.3249 20.5109 28.5347 18.6032 27.1282 17.1967C25.7217 15.7902 23.8141 15 21.8249 15ZM21.8249 26.25C21.0832 26.25 20.3582 26.0301 19.7415 25.618C19.1249 25.2059 18.6442 24.6203 18.3604 23.935C18.0766 23.2498 18.0023 22.4958 18.147 21.7684C18.2917 21.041 18.6488 20.3728 19.1733 19.8483C19.6977 19.3239 20.3659 18.9667 21.0933 18.822C21.8208 18.6773 22.5748 18.7516 23.26 19.0354C23.9452 19.3193 24.5309 19.7999 24.9429 20.4166C25.355 21.0333 25.5749 21.7583 25.5749 22.5C25.5749 23.4945 25.1798 24.4484 24.4766 25.1516C23.7733 25.8549 22.8195 26.25 21.8249 26.25Z" fill="black"/>
</svg>
