<svg width="35" height="35" viewBox="0 0 35 35" fill="none" xmlns="http://www.w3.org/2000/svg">
<path d="M7.95455 0H11.1364V1.59091H7.95455V0ZM23.8636 0H27.0455V1.59091H23.8636V0ZM33.4091 6.36364V4.77273H28.6364V1.59091H27.0455V9.54545H23.8636V1.59091H22.2727V4.77273H12.7273V1.59091H11.1364V9.54545H7.95455V1.59091H6.36364V4.77273H1.59091V6.36364H0V33.4091H1.59091V35H33.4091V33.4091H35V6.36364H33.4091ZM31.8182 11.1364V15.9091H27.0455V11.1364H31.8182ZM31.8182 23.8636H27.0455V19.0909H31.8182V23.8636ZM31.8182 31.8182H27.0455V27.0455H31.8182V31.8182ZM3.18182 27.0455H7.95455V31.8182H3.18182V27.0455ZM3.18182 19.0909H7.95455V23.8636H3.18182V19.0909ZM23.8636 23.8636H19.0909V19.0909H23.8636V23.8636ZM15.9091 23.8636H11.1364V19.0909H15.9091V23.8636ZM11.1364 27.0455H15.9091V31.8182H11.1364V27.0455ZM19.0909 27.0455H23.8636V31.8182H19.0909V27.0455ZM23.8636 15.9091H19.0909V11.1364H23.8636V15.9091ZM15.9091 11.1364V15.9091H11.1364V11.1364H15.9091ZM7.95455 15.9091H3.18182V11.1364H7.95455V15.9091Z" fill="black"/>
</svg>
