<svg width="35" height="35" viewBox="0 0 35 35" fill="none" xmlns="http://www.w3.org/2000/svg">
<path fill-rule="evenodd" clip-rule="evenodd" d="M10.5 0.00109814C8.64348 0.00109814 6.86301 0.922941 5.55025 2.56383C4.2375 4.20472 3.5 6.43025 3.5 8.75082C3.5 11.0714 4.2375 13.2969 5.55025 14.9378C6.86301 16.5787 8.64348 17.5005 10.5 17.5005C12.3565 17.5005 14.137 16.5787 15.4497 14.9378C16.7625 13.2969 17.5 11.0714 17.5 8.75082C17.5 6.43025 16.7625 4.20472 15.4497 2.56383C14.137 0.922941 12.3565 0.00109814 10.5 0.00109814ZM7 19.688C5.14348 19.688 3.36301 20.6098 2.05025 22.2507C0.737498 23.8916 0 26.1171 0 28.4377V30.6251C0 31.7854 0.368749 32.8982 1.02513 33.7186C1.6815 34.5391 2.57174 35 3.5 35H17.5C18.4283 35 19.3185 34.5391 19.9749 33.7186C20.6313 32.8982 21 31.7854 21 30.6251V28.4377C21 26.1171 20.2625 23.8916 18.9497 22.2507C17.637 20.6098 15.8565 19.688 14 19.688H7ZM19.6875 15.1053C20.524 13.2241 21 11.0586 21 8.75082C21.0004 6.52717 20.5487 4.33985 19.6875 2.39415C20.6812 1.21891 21.9286 0.43336 23.2755 0.134595C24.6225 -0.16417 26.01 0.036941 27.2665 0.713074C28.523 1.38921 29.5935 2.51072 30.3456 3.93902C31.0977 5.36732 31.4986 7.03978 31.4986 8.74973C31.4986 10.4597 31.0977 12.1321 30.3456 13.5604C29.5935 14.9887 28.523 16.1103 27.2665 16.7864C26.01 17.4625 24.6225 17.6636 23.2755 17.3649C21.9286 17.0661 20.6812 16.2806 19.6875 15.1053ZM23.5655 35C24.1605 33.7138 24.5017 32.2198 24.5017 30.6251V28.4377C24.505 25.2086 23.5525 22.092 21.8277 19.688H28C29.8565 19.688 31.637 20.6098 32.9497 22.2507C34.2625 23.8916 35 26.1171 35 28.4377V30.6251C35 31.7854 34.6312 32.8982 33.9749 33.7186C33.3185 34.5391 32.4283 35 31.5 35H23.5655Z" fill="black"/>
</svg>
